<svg xmlns="http://www.w3.org/2000/svg" viewBox="0 0 816 816"><g clip-path="url(#a)" transform="matrix(1.33333 0 0 -1.33333 0 816)"><path fill="#E82C81" d="M134.4346 332.9844h-50.305c-4.436 0-8.031-3.596-8.031-8.031v-1.842c0-4.435 3.595-8.031 8.031-8.031h50.305c4.436 0 8.031 3.596 8.031 8.031v1.842c0 4.435-3.595 8.031-8.031 8.031m413.0117 0h-50.306c-4.435 0-8.031-3.596-8.031-8.031v-1.842c0-4.435 3.596-8.031 8.031-8.031h50.306c4.436 0 8.031 3.596 8.031 8.031v1.842c0 4.435-3.595 8.031-8.031 8.031M307.1514 551.8892v-50.306c0-4.485 3.637-8.121 8.122-8.121h1.841c4.386 0 7.941 3.555 7.941 7.941v50.486c0 4.385-3.555 7.94-7.941 7.94h-2.022c-4.385 0-7.941-3.555-7.941-7.94m172.0947-67.7198-35.571-35.571c-3.136-3.137-3.136-8.221 0-11.358l1.302-1.302c3.136-3.136 8.221-3.136 11.358 0l35.571 35.571c3.137 3.137 3.137 8.222 0 11.358l-1.302 1.302c-3.136 3.136-8.221 3.136-11.358 0m-340.7466-17.2173 35.571-35.571c3.137-3.137 8.221-3.137 11.358 0l1.302 1.301c3.136 3.137 3.136 8.222 0 11.358l-35.571 35.572c-3.137 3.136-8.222 3.136-11.358 0l-1.302-1.302c-3.137-3.137-3.137-8.222 0-11.358"/><path fill="none" stroke="#E82C81" stroke-linejoin="round" stroke-miterlimit="10" stroke-width="8" d="M450.5645 321.0352c0 76-63.053 137.273-139.701 134.361-70.992-2.696-128.274-61.512-129.21-132.55-.451-34.266 11.921-65.631 32.618-89.61 17.069-19.775 27.012-44.696 27.012-70.819v-1.184h148.634c0 26.207 9.819 51.351 27.139 71.019 20.854 23.679 33.508 54.748 33.508 88.783Z"/><path fill="none" stroke="#E82C81" stroke-miterlimit="10" stroke-width="8" d="M380.4551 134.6592h-129.334c-5.994 0-10.853 4.858-10.853 10.852v2.488c0 5.993 4.859 10.851 10.853 10.851h129.334c5.993 0 10.852-4.858 10.852-10.851v-2.488c0-5.994-4.859-10.852-10.852-10.852Zm-2.3877-26.5742h-124.56c-5.993 0-10.851 4.858-10.851 10.853v2.487c0 5.993 4.858 10.851 10.851 10.851h124.56c5.994 0 10.853-4.858 10.853-10.851v-2.487c0-5.995-4.859-10.853-10.853-10.853Zm-6.2735-26.5733c0-11.119-25.075-20.133-56.006-20.133s-56.006 9.014-56.006 20.133m107.9632 0h-103.915c-5.993 0-10.852 4.858-10.852 10.852v2.487c0 5.993 4.859 10.852 10.852 10.852h103.915c5.993 0 10.852-4.859 10.852-10.852v-2.487c0-5.994-4.859-10.852-10.852-10.852Z"/><path fill="none" stroke="#E82C81" stroke-linecap="round" stroke-linejoin="round" stroke-miterlimit="10" stroke-width="5" d="m310.9902 161.2334-44.103 124.715m60.5933-124.715 44.103 124.715m-48.0161-31.2658s-1.021 50.896-1.702 53.791c3.598 6.97 10.921 5.596 18.044.17 5.363-11.154-2.958-19.366-15.49-21.789 0 0 13.107.511 16.511-3.915 12.357-11.72 3.903-24.976-11.064-27.236Zm-29.7461 58.6011-1.217-58.667h23.856"/><path fill="none" stroke="#E82C81" stroke-linejoin="round" stroke-miterlimit="10" stroke-width="5" d="M266.8877 285.9482s6.773-8.043 18.714-8.329m85.8465 8.329s-6.773-8.043-18.714-8.329"/></g></svg>